{
.appVersion = "1131";
DisplayStrings = (
"0123456789",
"/j.alt ss·"
);
copyright = "Copyright © 2018 by John Cido. All rights reserved.";
date = "2018-05-03 07:58:21 +0000";
designer = "John Cido";
disablesAutomaticAlignment = 1;
familyName = "Apetino Brand";
featurePrefixes = (
{
automatic = 1;
code = "languagesystem DFLT dflt;\012";
name = Languagesystems;
}
);
features = (
{
automatic = 1;
code = "sub j by j.alt;\012";
name = alt;
}
);
fontMaster = (
{
ascender = 1500;
capHeight = 1000;
customParameters = (
{
name = winAscent;
value = 1500;
},
{
name = winDescent;
value = 500;
},
{
name = hheaAscender;
value = 1500;
},
{
name = hheaDescender;
value = -500;
},
{
name = hheaLineGap;
value = 100;
},
{
name = typoAscender;
value = 1500;
},
{
name = typoDescender;
value = -500;
},
{
name = typoLineGap;
value = 100;
},
{
name = underlineThickness;
value = 100;
}
);
descender = -500;
id = "346F8FB6-4476-4036-9C9F-BD3CB38CA886";
weightValue = 400;
xHeight = 1000;
}
);
glyphs = (
{
glyphname = e;
lastChange = "2018-05-03 09:06:47 +0000";
layers = (
{
layerId = "346F8FB6-4476-4036-9C9F-BD3CB38CA886";
paths = (
{
closed = 1;
nodes = (
"348.857 1000 OFFCURVE",
"125 776.145 OFFCURVE",
"125 500 CURVE SMOOTH",
"125 223.858 OFFCURVE",
"348.857 0 OFFCURVE",
"625 0 CURVE SMOOTH",
"763.07 0 OFFCURVE",
"912.015 44.518 OFFCURVE",
"1000 125 CURVE",
"851.955 290.545 LINE",
"791.835 243.187 OFFCURVE",
"721.648 217.5 OFFCURVE",
"628.272 217.5 CURVE SMOOTH",
"560.913 217.5 OFFCURVE",
"502.485 243.187 OFFCURVE",
"467.707 271.203 CURVE SMOOTH",
"425.365 305.312 OFFCURVE",
"399.382 342.953 OFFCURVE",
"386.743 387.5 CURVE",
"1118.31 387.5 LINE",
"1123.003 418.903 OFFCURVE",
"1125 482.275 OFFCURVE",
"1125 500 CURVE SMOOTH",
"1125 776.145 OFFCURVE",
"901.142 1000 OFFCURVE",
"625 1000 CURVE SMOOTH"
);
},
{
closed = 1;
nodes = (
"417.26 700.727 OFFCURVE",
"515.747 770 OFFCURVE",
"625 770 CURVE SMOOTH",
"736.752 770 OFFCURVE",
"837.74 705.727 OFFCURVE",
"868.26 607.5 CURVE",
"384.24 607.5 LINE"
);
}
);
width = 1250;
}
);
unicode = 0065;
},
{
glyphname = k;
lastChange = "2018-05-03 09:15:56 +0000";
layers = (
{
layerId = "346F8FB6-4476-4036-9C9F-BD3CB38CA886";
paths = (
{
closed = 1;
nodes = (
"929.822 730.054 OFFCURVE",
"1025.031 750 OFFCURVE",
"1125 750 CURVE",
"1125 1000 LINE",
"825.919 1000 OFFCURVE",
"558.255 868.012 OFFCURVE",
"375 659.912 CURVE",
"375 1500 LINE",
"125 1500 LINE",
"125 0 LINE",
"375 0 LINE",
"375 221.835 OFFCURVE",
"471.884 420.557 OFFCURVE",
"624.973 557.871 CURVE",
"778.223 420.703 OFFCURVE",
"875.003 221.887 OFFCURVE",
"875.003 0 CURVE",
"1125.003 0 LINE",
"1125.003 270.294 OFFCURVE",
"1016.962 514.694 OFFCURVE",
"842.606 694.553 CURVE"
);
}
);
width = 1250;
}
);
unicode = 006B;
},
{
glyphname = s;
lastChange = "2018-05-03 09:27:42 +0000";
layers = (
{
layerId = "346F8FB6-4476-4036-9C9F-BD3CB38CA886";
paths = (
{
closed = 1;
nodes = (
"605.83 693 LINE",
"553.955 742.375 OFFCURVE",
"511.455 771.75 OFFCURVE",
"461.455 771.75 CURVE SMOOTH",
"438.755 771.75 OFFCURVE",
"425.218 767.98 OFFCURVE",
"412.08 759.875 CURVE SMOOTH",
"397.705 751.007 OFFCURVE",
"392.705 734.25 OFFCURVE",
"392.705 718.625 CURVE SMOOTH",
"392.705 691.96 OFFCURVE",
"411.193 670.715 OFFCURVE",
"452.705 650.5 CURVE SMOOTH",
"565.875 595.39 OFFCURVE",
"663.325 539.09 OFFCURVE",
"709.737 491.75 CURVE SMOOTH",
"766.562 433.788 OFFCURVE",
"799.17 365.5 OFFCURVE",
"799.17 284.25 CURVE SMOOTH",
"799.17 194.25 OFFCURVE",
"766.562 133.625 OFFCURVE",
"700.938 78 CURVE SMOOTH",
"635.938 23 OFFCURVE",
"556.455 0.5 OFFCURVE",
"467.705 0.5 CURVE SMOOTH",
"310.83 0.5 OFFCURVE",
"198.33 60.5 OFFCURVE",
"100.83 197.375 CURVE",
"276.455 336.75 LINE",
"313.46 292.07 OFFCURVE",
"376.77 230.5 OFFCURVE",
"448.955 230.5 CURVE SMOOTH",
"480.715 230.5 OFFCURVE",
"503.74 237.808 OFFCURVE",
"518.023 249.462 CURVE SMOOTH",
"533.983 262.488 OFFCURVE",
"539.457 280.1 OFFCURVE",
"539.457 296.34 CURVE SMOOTH",
"539.457 324.82 OFFCURVE",
"523.88 349.718 OFFCURVE",
"493.235 371.328 CURVE SMOOTH",
"445.595 404.922 OFFCURVE",
"412.08 423.9 OFFCURVE",
"336.455 464.25 CURVE SMOOTH",
"216.078 528.48 OFFCURVE",
"167.705 615.5 OFFCURVE",
"167.705 718 CURVE SMOOTH",
"167.705 794.25 OFFCURVE",
"196.855 861.725 OFFCURVE",
"247.705 913 CURVE SMOOTH",
"297.347 963.057 OFFCURVE",
"370.448 999.25 OFFCURVE",
"458.955 999.25 CURVE SMOOTH",
"521.455 999.25 OFFCURVE",
"572.705 988 OFFCURVE",
"627.705 960.5 CURVE SMOOTH",
"682.705 933 OFFCURVE",
"723.038 896.388 OFFCURVE",
"770.205 846.75 CURVE"
);
}
);
width = 925;
}
);
unicode = 0073;
},
{
glyphname = x;
lastChange = "2018-05-03 09:27:27 +0000";
layers = (
{
layerId = "346F8FB6-4476-4036-9C9F-BD3CB38CA886";
paths = (
{
closed = 1;
nodes = (
"1140 1000 LINE",
"831.32 1000 LINE",
"625 713.97 LINE",
"418.68 1000 LINE",
"110 1000 LINE",
"470.66 500 LINE",
"110 0 LINE",
"418.68 0 LINE",
"625 286.03 LINE",
"831.32 0 LINE",
"1140 0 LINE",
"779.34 500 LINE"
);
}
);
width = 1250;
}
);
unicode = 0078;
},
{
export = 0;
glyphname = _global;
lastChange = "2018-05-03 08:13:32 +0000";
layers = (
{
layerId = "346F8FB6-4476-4036-9C9F-BD3CB38CA886";
paths = (
{
closed = 1;
nodes = (
"125 224 OFFCURVE",
"349 0 OFFCURVE",
"625 0 CURVE SMOOTH",
"901 0 OFFCURVE",
"1125 224 OFFCURVE",
"1125 500 CURVE SMOOTH",
"1125 776 OFFCURVE",
"901 1000 OFFCURVE",
"625 1000 CURVE SMOOTH",
"349 1000 OFFCURVE",
"125 776 OFFCURVE",
"125 500 CURVE SMOOTH"
);
},
{
closed = 1;
nodes = (
"375 638 OFFCURVE",
"487 750 OFFCURVE",
"625 750 CURVE SMOOTH",
"763 750 OFFCURVE",
"875 638 OFFCURVE",
"875 500 CURVE SMOOTH",
"875 362 OFFCURVE",
"763 250 OFFCURVE",
"625 250 CURVE SMOOTH",
"487 250 OFFCURVE",
"375 362 OFFCURVE",
"375 500 CURVE SMOOTH"
);
}
);
width = 1250;
}
);
},
{
export = 0;
glyphname = o1.cp;
lastChange = "2018-05-03 08:29:48 +0000";
layers = (
{
layerId = "346F8FB6-4476-4036-9C9F-BD3CB38CA886";
paths = (
{
closed = 1;
nodes = (
"224 1000 OFFCURVE",
"0 776 OFFCURVE",
"0 500 CURVE",
"0 224 OFFCURVE",
"224 0 OFFCURVE",
"500 0 CURVE",
"776 0 OFFCURVE",
"1000 224 OFFCURVE",
"1000 500 CURVE",
"1000 776 OFFCURVE",
"776 1000 OFFCURVE",
"500 1000 CURVE"
);
},
{
closed = 1;
nodes = (
"362 250 OFFCURVE",
"250 362 OFFCURVE",
"250 500 CURVE",
"250 638 OFFCURVE",
"362 750 OFFCURVE",
"500 750 CURVE",
"638 750 OFFCURVE",
"750 638 OFFCURVE",
"750 500 CURVE",
"750 362 OFFCURVE",
"638 250 OFFCURVE",
"500 250 CURVE"
);
}
);
width = 1000;
}
);
},
{
export = 0;
glyphname = r0.5.cp;
lastChange = "2018-05-03 08:30:27 +0000";
layers = (
{
layerId = "346F8FB6-4476-4036-9C9F-BD3CB38CA886";
paths = (
{
closed = 1;
nodes = (
"0 0 LINE",
"250 0 LINE",
"250 125 LINE",
"0 125 LINE"
);
}
);
width = 250;
}
);
},
{
export = 0;
glyphname = r1.cp;
lastChange = "2018-05-03 08:31:09 +0000";
layers = (
{
layerId = "346F8FB6-4476-4036-9C9F-BD3CB38CA886";
paths = (
{
closed = 1;
nodes = (
"0 0 LINE",
"250 0 LINE",
"250 250 LINE",
"0 250 LINE"
);
}
);
width = 250;
}
);
},
{
export = 0;
glyphname = r2.cp;
lastChange = "2018-05-03 08:31:22 +0000";
layers = (
{
layerId = "346F8FB6-4476-4036-9C9F-BD3CB38CA886";
paths = (
{
closed = 1;
nodes = (
"0 0 LINE",
"250 0 LINE",
"250 500 LINE",
"0 500 LINE"
);
}
);
width = 250;
}
);
},
{
export = 0;
glyphname = r3.cp;
lastChange = "2018-05-03 08:31:33 +0000";
layers = (
{
layerId = "346F8FB6-4476-4036-9C9F-BD3CB38CA886";
paths = (
{
closed = 1;
nodes = (
"0 0 LINE",
"250 0 LINE",
"250 750 LINE",
"0 750 LINE"
);
}
);
width = 250;
}
);
},
{
export = 0;
glyphname = r4.cp;
lastChange = "2018-05-03 08:31:44 +0000";
layers = (
{
layerId = "346F8FB6-4476-4036-9C9F-BD3CB38CA886";
paths = (
{
closed = 1;
nodes = (
"0 0 LINE",
"250 0 LINE",
"250 1000 LINE",
"0 1000 LINE"
);
}
);
width = 250;
}
);
},
{
export = 0;
glyphname = r6.cp;
lastChange = "2018-05-03 08:31:52 +0000";
layers = (
{
layerId = "346F8FB6-4476-4036-9C9F-BD3CB38CA886";
paths = (
{
closed = 1;
nodes = (
"0 0 LINE",
"250 0 LINE",
"250 1500 LINE",
"0 1500 LINE"
);
}
);
width = 250;
}
);
},
{
export = 0;
glyphname = c1.cp;
lastChange = "2018-05-03 08:52:20 +0000";
layers = (
{
layerId = "346F8FB6-4476-4036-9C9F-BD3CB38CA886";
paths = (
{
closed = 1;
nodes = (
"250 0 LINE",
"250 138 OFFCURVE",
"138 250 OFFCURVE",
"0 250 CURVE",
"0 0 LINE"
);
}
);
width = 250;
}
);
},
{
export = 0;
glyphname = c1.5.cp;
lastChange = "2018-05-03 08:52:20 +0000";
layers = (
{
layerId = "346F8FB6-4476-4036-9C9F-BD3CB38CA886";
paths = (
{
closed = 1;
nodes = (
"69 125 OFFCURVE",
"125 69 OFFCURVE",
"125 0 CURVE",
"375 0 LINE",
"375 207 OFFCURVE",
"207 375 OFFCURVE",
"0 375 CURVE",
"0 125 LINE"
);
}
);
width = 375;
}
);
},
{
export = 0;
glyphname = c2.cp;
lastChange = "2018-05-03 08:52:20 +0000";
layers = (
{
layerId = "346F8FB6-4476-4036-9C9F-BD3CB38CA886";
paths = (
{
closed = 1;
nodes = (
"138 250 OFFCURVE",
"250 138 OFFCURVE",
"250 0 CURVE",
"500 0 LINE",
"500 276 OFFCURVE",
"276 500 OFFCURVE",
"0 500 CURVE",
"0 250 LINE"
);
}
);
width = 500;
}
);
},
{
export = 0;
glyphname = c2.5.cp;
lastChange = "2018-05-03 08:52:20 +0000";
layers = (
{
layerId = "346F8FB6-4476-4036-9C9F-BD3CB38CA886";
paths = (
{
closed = 1;
nodes = (
"207 375 OFFCURVE",
"375 207 OFFCURVE",
"375 0 CURVE",
"625 0 LINE",
"625 345 OFFCURVE",
"345 625 OFFCURVE",
"0 625 CURVE",
"0 375 LINE"
);
}
);
width = 625;
}
);
},
{
export = 0;
glyphname = c3.cp;
lastChange = "2018-05-03 08:52:20 +0000";
layers = (
{
layerId = "346F8FB6-4476-4036-9C9F-BD3CB38CA886";
paths = (
{
closed = 1;
nodes = (
"276 500 OFFCURVE",
"500 276 OFFCURVE",
"500 0 CURVE SMOOTH",
"750 0 LINE SMOOTH",
"750 414 OFFCURVE",
"414 750 OFFCURVE",
"0 750 CURVE SMOOTH",
"0 500 LINE SMOOTH"
);
}
);
width = 750;
}
);
},
{
export = 0;
glyphname = c4.cp;
lastChange = "2018-05-03 08:52:20 +0000";
layers = (
{
layerId = "346F8FB6-4476-4036-9C9F-BD3CB38CA886";
paths = (
{
closed = 1;
nodes = (
"414 750 OFFCURVE",
"750 414 OFFCURVE",
"750 0 CURVE",
"1000 0 LINE",
"1000 552 OFFCURVE",
"552 1000 OFFCURVE",
"0 1000 CURVE",
"0 750 LINE"
);
}
);
width = 1000;
}
);
},
{
export = 0;
glyphname = "c45-1.5.cp";
lastChange = "2018-05-03 09:00:07 +0000";
layers = (
{
layerId = "346F8FB6-4476-4036-9C9F-BD3CB38CA886";
paths = (
{
closed = 1;
nodes = (
"197.302 333.026 OFFCURVE",
"103.552 375 OFFCURVE",
"0 375 CURVE",
"0 125 LINE",
"34.521 125 OFFCURVE",
"65.765 111.008 OFFCURVE",
"88.391 88.388 CURVE",
"265.161 265.164 LINE"
);
}
);
width = 375;
}
);
},
{
export = 0;
glyphname = "c45-2.cp";
lastChange = "2018-05-03 09:01:19 +0000";
layers = (
{
layerId = "346F8FB6-4476-4036-9C9F-BD3CB38CA886";
paths = (
{
closed = 1;
nodes = (
"0 250 LINE",
"69.037 250 OFFCURVE",
"131.531 222.015 OFFCURVE",
"176.776 176.776 CURVE",
"353.552 353.552 LINE",
"263.068 444.034 OFFCURVE",
"138.074 500 OFFCURVE",
"0 500 CURVE"
);
}
);
width = 500;
}
);
},
{
export = 0;
glyphname = "c45-3.cp";
lastChange = "2018-05-03 09:02:23 +0000";
layers = (
{
layerId = "346F8FB6-4476-4036-9C9F-BD3CB38CA886";
paths = (
{
closed = 1;
nodes = (
"356.558 681.592 OFFCURVE",
"186.407 750 OFFCURVE",
"0 750 CURVE",
"0 500 LINE",
"124.271 500 OFFCURVE",
"237.708 454.391 OFFCURVE",
"325.162 379.355 CURVE",
"487.744 569.037 LINE"
);
}
);
width = 750;
}
);
},
{
export = 0;
glyphname = "c135-2.cp";
lastChange = "2018-05-03 09:02:55 +0000";
layers = (
{
layerId = "346F8FB6-4476-4036-9C9F-BD3CB38CA886";
paths = (
{
closed = 1;
nodes = (
"853.552 353.552 LINE",
"763.068 444.034 OFFCURVE",
"638.071 500 OFFCURVE",
"500 500 CURVE",
"223.859 500 OFFCURVE",
"0 276.144 OFFCURVE",
"0 0 CURVE",
"250 0 LINE",
"250 138.071 OFFCURVE",
"361.929 250 OFFCURVE",
"500 250 CURVE",
"569.037 250 OFFCURVE",
"631.534 222.015 OFFCURVE",
"676.776 176.776 CURVE"
);
}
);
width = 1000;
}
);
},
